<?xml version="1.0" encoding="UTF-8"?>
<svg version="1.1" xmlns="http://www.w3.org/2000/svg" width="40" height="40">
<path d="M0 0 C3.0897715 0.98609729 3.77492088 1.68841772 5.9375 3.9375 C7.13375 4.329375 8.33 4.72125 9.5625 5.125 C12.9375 6.9375 12.9375 6.9375 13.61328125 8.90625 C13.875 11.125 13.875 11.125 13.9375 14.9375 C10.35813372 17.14828505 6.6985909 19.05695455 2.9375 20.9375 C1.9475 21.5975 0.9575 22.2575 -0.0625 22.9375 C-3.1875 22.6875 -3.1875 22.6875 -6.0625 21.9375 C-7.62779043 18.80691914 -7.32941314 15.49670992 -7.375 12.0625 C-7.40400391 11.34191406 -7.43300781 10.62132812 -7.46289062 9.87890625 C-7.50530754 6.33546259 -7.3454027 4.32618897 -5.234375 1.42578125 C-3.0625 -0.0625 -3.0625 -0.0625 0 0 Z " fill="#FCD2A3" transform="translate(22.0625,16.0625)"/>
<path d="M0 0 C1.9375 0.375 1.9375 0.375 4 1 C5.12256131 3.24512262 5.13413762 4.51456649 5.125 7 C5.12757812 7.70125 5.13015625 8.4025 5.1328125 9.125 C5 11 5 11 4 13 C1.625 13.1875 1.625 13.1875 -1 13 C-3.32579101 9.51131349 -3.41865457 8.10281481 -3 4 C-1.5 1.625 -1.5 1.625 0 0 Z " fill="#F7DFC0" transform="translate(34,7)"/>
<path d="M0 0 C4.875 0.875 4.875 0.875 6 2 C6.16796875 3.99609375 6.16796875 3.99609375 6.1875 6.4375 C6.20167969 7.24058594 6.21585938 8.04367187 6.23046875 8.87109375 C6 11 6 11 4 13 C2 12.8125 2 12.8125 0 12 C-2.31332486 8.53001271 -2.33957563 7.07490752 -2 3 C-1.34 2.01 -0.68 1.02 0 0 Z " fill="#F8DFC3" transform="translate(20,1)"/>
<path d="M0 0 C5.42384106 0.60264901 5.42384106 0.60264901 7.8125 2.25 C9.34506609 4.50851844 9.79131742 6.28712642 10 9 C9.34 9.66 8.68 10.32 8 11 C4.47320099 10.9071895 3.20539828 10.19458784 0.625 7.75 C-1 5 -1 5 -0.75 2.1875 C-0.5025 1.465625 -0.255 0.74375 0 0 Z " fill="#FAD3A7" transform="translate(6,7)"/>
<path d="M0 0 C3.36621173 0.92570822 5.96645078 2.11021953 8 5 C8.1875 7.6875 8.1875 7.6875 8 10 C6.375 10.75 6.375 10.75 4 11 C0.8125 9.375 0.8125 9.375 -2 7 C-2.875 4.25 -2.875 4.25 -3 2 C-2.01 1.34 -1.02 0.68 0 0 Z " fill="#F9D7B2" transform="translate(4,20)"/>
<path d="M0 0 C2.875 0.9375 2.875 0.9375 4.875 3.9375 C1.575 3.6075 -1.725 3.2775 -5.125 2.9375 C-5.104375 4.2575 -5.08375 5.5775 -5.0625 6.9375 C-5.05549557 11.35729822 -5.48923906 15.56664354 -6.125 19.9375 C-6.455 19.9375 -6.785 19.9375 -7.125 19.9375 C-7.2331866 17.35304227 -7.31237237 14.77312648 -7.375 12.1875 C-7.40851562 11.45789062 -7.44203125 10.72828125 -7.4765625 9.9765625 C-7.54156395 6.40148281 -7.42649943 4.35481145 -5.3046875 1.41796875 C-3.125 -0.0625 -3.125 -0.0625 0 0 Z " fill="#F8E5CA" transform="translate(22.125,16.0625)"/>
<path d="M0 0 C1.32 0 2.64 0 4 0 C4 2.64 4 5.28 4 8 C2.35 7.67 0.7 7.34 -1 7 C-1.04254356 5.00045254 -1.04080783 2.99958364 -1 1 C-0.67 0.67 -0.34 0.34 0 0 Z " fill="#F9D09D" transform="translate(21,4)"/>
<path d="M0 0 C3 1 3 1 4.25 2.8125 C5.11637742 5.33943414 4.88492145 6.52221994 4 9 C2.35 9.33 0.7 9.66 -1 10 C-1.33 9.34 -1.66 8.68 -2 8 C-0.68 8 0.64 8 2 8 C1.34 5.36 0.68 2.72 0 0 Z " fill="#F7DEBD" transform="translate(11,8)"/>
<path d="M0 0 C0.99 0 1.98 0 3 0 C3 2.31 3 4.62 3 7 C1.68 7 0.36 7 -1 7 C-1.04254356 5.00045254 -1.04080783 2.99958364 -1 1 C-0.67 0.67 -0.34 0.34 0 0 Z " fill="#FDCD97" transform="translate(34,10)"/>
<path d="M0 0 C0.99 0.33 1.98 0.66 3 1 C3.33 3.64 3.66 6.28 4 9 C3.01 9.495 3.01 9.495 2 10 C1.855625 8.906875 1.71125 7.81375 1.5625 6.6875 C1.11711896 3.06877013 1.11711896 3.06877013 0 0 Z " fill="#F6DEC1" transform="translate(32,22)"/>
</svg>
